# Blender 4.2.16 LTS
# www.blender.org
mtllib box1.002.mtl
o box1.001
v -0.586460 -0.155001 0.216043
v -0.584996 0.057917 0.211322
v -0.584996 0.203750 0.211322
v -0.584996 0.349583 0.211321
v -0.478234 -0.155001 -0.132837
v -0.478234 0.057917 -0.132837
v -0.356209 -0.155001 -0.094983
v -0.360917 0.057917 -0.096444
v -0.518577 -0.155001 -0.002791
v -0.565210 -0.155001 0.147539
v -0.522467 0.057917 0.009750
v -0.562377 0.057917 0.138406
v -0.360917 -0.155001 0.009750
v -0.360917 -0.155001 0.155583
v -0.478234 0.203750 -0.132837
v -0.478234 0.349583 -0.132838
v -0.360917 0.203750 -0.096444
v -0.360917 0.349583 -0.096443
v -0.522467 0.203750 0.009750
v -0.562377 0.203750 0.138405
v -0.522467 0.349583 0.009750
v -0.562377 0.349583 0.138404
v -0.611483 -0.155001 0.296708
v -0.649337 -0.155001 0.418734
v -0.612944 0.057917 0.301417
v -0.649338 0.057917 0.418735
v -0.612944 0.203750 0.301417
v -0.649337 0.203750 0.418733
v -0.612944 0.349583 0.301417
v -0.649337 0.349583 0.418733
v -0.506750 -0.155001 0.301417
v -0.519291 -0.155001 0.459075
v -0.506751 0.057917 0.462966
v -0.360917 -0.155001 0.301417
v -0.368961 -0.155001 0.505709
v -0.378095 0.057917 0.502876
v -0.300457 -0.155001 0.526960
v -0.305178 0.057917 0.525496
v -0.506750 0.203750 0.462965
v -0.506751 0.349583 0.462966
v -0.378094 0.203750 0.502874
v -0.378094 0.349583 0.502875
v -0.305177 0.203750 0.525494
v -0.305178 0.349583 0.525495
v -0.584996 0.495417 0.211321
v -0.584996 0.641250 0.211321
v -0.584996 0.787083 0.211321
v -0.586460 1.000000 0.216042
v -0.478234 0.495417 -0.132838
v -0.478234 0.641250 -0.132838
v -0.360917 0.495417 -0.096444
v -0.360917 0.641250 -0.096444
v -0.522467 0.495417 0.009750
v -0.562377 0.495417 0.138404
v -0.522467 0.641250 0.009750
v -0.562377 0.641250 0.138405
v -0.478234 0.787084 -0.132839
v -0.478235 1.000000 -0.132836
v -0.360917 0.787083 -0.096444
v -0.356209 1.000000 -0.094982
v -0.522467 0.787083 0.009750
v -0.562377 0.787083 0.138405
v -0.518576 1.000000 -0.002791
v -0.565211 1.000000 0.147538
v -0.360917 1.000000 0.009750
v -0.360917 1.000000 0.155583
v -0.612944 0.495417 0.301417
v -0.649337 0.495417 0.418733
v -0.612945 0.641250 0.301417
v -0.649337 0.641250 0.418733
v -0.612945 0.787083 0.301417
v -0.649337 0.787083 0.418734
v -0.611484 1.000000 0.296708
v -0.649337 1.000000 0.418733
v -0.506751 0.495417 0.462966
v -0.506750 0.641250 0.462965
v -0.378095 0.495417 0.502876
v -0.378093 0.641250 0.502876
v -0.305178 0.495417 0.525496
v -0.305176 0.641250 0.525494
v -0.506751 0.787083 0.462965
v -0.506750 1.000000 0.301417
v -0.519291 1.000000 0.459075
v -0.378093 0.787083 0.502876
v -0.360917 1.000000 0.301417
v -0.368960 1.000000 0.505709
v -0.305176 0.787083 0.525495
v -0.300456 1.000000 0.526959
v -0.275543 -0.155001 -0.069960
v -0.270822 0.057917 -0.068496
v -0.207039 -0.155001 -0.048709
v -0.215084 -0.155001 0.155583
v -0.197905 0.057917 -0.045876
v -0.056710 -0.155001 -0.002076
v -0.069250 -0.155001 0.155583
v -0.069250 0.057917 -0.005967
v -0.270822 0.203750 -0.068496
v -0.270823 0.349583 -0.068495
v -0.197905 0.203750 -0.045876
v -0.197906 0.349583 -0.045876
v -0.069250 0.203750 -0.005967
v -0.069250 0.349583 -0.005967
v 0.073336 -0.155001 0.038264
v 0.035482 -0.155001 0.160291
v 0.073337 0.057917 0.038265
v 0.036943 0.057917 0.155583
v 0.073335 0.203750 0.038266
v 0.036943 0.203750 0.155583
v 0.073336 0.349584 0.038265
v 0.036943 0.349583 0.155583
v -0.215084 -0.155001 0.301417
v -0.215084 -0.155001 0.447250
v -0.010792 -0.155001 0.309460
v -0.057426 -0.155001 0.459791
v -0.013625 0.057917 0.318593
v -0.053535 0.057917 0.447250
v -0.219792 -0.155001 0.551983
v -0.215084 0.057917 0.553444
v -0.097767 -0.155001 0.589836
v -0.097767 0.057917 0.589837
v -0.013625 0.203750 0.318594
v -0.053536 0.203750 0.447250
v -0.013625 0.349583 0.318594
v -0.053536 0.349583 0.447250
v -0.215084 0.203750 0.553442
v -0.215084 0.349583 0.553443
v -0.097767 0.203750 0.589836
v -0.097767 0.349583 0.589836
v 0.010459 -0.155001 0.240956
v 0.008995 0.057917 0.245677
v 0.008995 0.203750 0.245677
v 0.008995 0.349583 0.245677
v -0.270822 0.495417 -0.068496
v -0.270822 0.641250 -0.068495
v -0.197906 0.495417 -0.045876
v -0.197906 0.641250 -0.045875
v -0.069250 0.495417 -0.005966
v -0.069250 0.641250 -0.005967
v -0.270822 0.787083 -0.068496
v -0.275542 1.000000 -0.069961
v -0.197905 0.787083 -0.045877
v -0.207039 1.000000 -0.048710
v -0.215084 1.000000 0.155583
v -0.069251 0.787083 -0.005966
v -0.056710 1.000000 -0.002077
v -0.069250 1.000000 0.155583
v 0.073335 0.495417 0.038266
v 0.036943 0.495417 0.155583
v 0.073336 0.641250 0.038266
v 0.036943 0.641250 0.155583
v 0.073336 0.787083 0.038266
v 0.036943 0.787083 0.155583
v 0.073337 1.000000 0.038263
v 0.035482 1.000000 0.160292
v -0.013625 0.495417 0.318594
v -0.053535 0.495417 0.447250
v -0.013625 0.641250 0.318594
v -0.053535 0.641250 0.447250
v -0.215084 0.495417 0.553443
v -0.215084 0.641250 0.553442
v -0.097767 0.495417 0.589837
v -0.097767 0.641250 0.589837
v -0.215084 1.000000 0.301417
v -0.215084 1.000000 0.447250
v -0.013625 0.787083 0.318593
v -0.053535 0.787083 0.447250
v -0.010791 1.000000 0.309460
v -0.057425 1.000000 0.459791
v -0.215084 0.787083 0.553442
v -0.219792 1.000000 0.551980
v -0.097767 0.787084 0.589837
v -0.097766 1.000000 0.589836
v 0.008995 0.495417 0.245677
v 0.008995 0.641250 0.245677
v 0.008994 0.787083 0.245677
v 0.010459 1.000000 0.240956
vn 0.2963 -0.0000 -0.9551
vn -0.9551 -0.0000 -0.2963
vn -0.0000 -1.0000 -0.0000
vn -0.2963 -0.0000 0.9551
vn -0.0000 1.0000 -0.0000
vn 0.9551 -0.0000 0.2963
s 0
usemtl RenderformerMatt.015
f 5//1 8//1 7//1
f 10//2 11//2 9//2
f 9//3 14//3 10//3
f 16//1 17//1 15//1
f 19//2 22//2 21//2
f 2//2 10//2 1//2
f 4//2 20//2 3//2
f 6//1 17//1 8//1
f 11//2 20//2 19//2
f 9//2 6//2 5//2
f 5//3 13//3 9//3
f 15//2 21//2 16//2
f 6//2 19//2 15//2
f 3//2 12//2 2//2
f 24//2 25//2 23//2
f 28//2 29//2 27//2
f 34//3 32//3 31//3
f 35//4 33//4 32//4
f 42//4 39//4 41//4
f 31//3 24//3 23//3
f 32//4 26//4 24//4
f 40//4 28//4 39//4
f 25//2 28//2 27//2
f 36//4 39//4 33//4
f 35//4 38//4 36//4
f 41//4 44//4 42//4
f 38//4 41//4 36//4
f 39//4 26//4 33//4
f 49//1 52//1 51//1
f 54//2 55//2 53//2
f 58//1 59//1 57//1
f 61//2 64//2 63//2
f 66//5 63//5 64//5
f 45//2 56//2 54//2
f 47//2 64//2 62//2
f 50//1 59//1 52//1
f 56//2 61//2 55//2
f 49//2 55//2 50//2
f 57//2 63//2 58//2
f 65//5 58//5 63//5
f 50//2 61//2 57//2
f 46//2 62//2 56//2
f 67//2 70//2 69//2
f 71//2 74//2 73//2
f 77//4 76//4 75//4
f 83//5 85//5 82//5
f 86//4 81//4 84//4
f 75//4 70//4 68//4
f 74//5 82//5 73//5
f 83//4 72//4 81//4
f 70//2 71//2 69//2
f 78//4 81//4 76//4
f 79//4 78//4 77//4
f 87//4 86//4 84//4
f 80//4 84//4 78//4
f 81//4 70//4 76//4
f 94//3 92//3 91//3
f 91//1 96//1 94//1
f 99//1 102//1 101//1
f 106//6 103//6 105//6
f 110//6 107//6 109//6
f 103//3 95//3 94//3
f 94//1 105//1 103//1
f 102//1 107//1 101//1
f 93//1 101//1 96//1
f 107//6 106//6 105//6
f 90//1 91//1 89//1
f 100//1 97//1 98//1
f 99//1 90//1 97//1
f 96//1 107//1 105//1
f 116//6 113//6 115//6
f 111//3 114//3 112//3
f 119//4 118//4 117//4
f 123//6 122//6 121//6
f 127//4 126//4 125//4
f 130//6 113//6 129//6
f 132//6 121//6 131//6
f 121//6 116//6 115//6
f 120//4 125//4 118//4
f 120//6 114//6 116//6
f 112//3 119//3 117//3
f 124//6 127//6 122//6
f 127//6 116//6 122//6
f 131//6 115//6 130//6
f 136//1 137//1 135//1
f 143//5 145//5 142//5
f 142//1 144//1 141//1
f 150//6 147//6 149//6
f 153//6 152//6 151//6
f 138//1 147//1 137//1
f 146//5 153//5 145//5
f 145//1 151//1 144//1
f 141//1 138//1 136//1
f 152//6 149//6 151//6
f 134//1 135//1 133//1
f 142//1 139//1 140//1
f 139//1 136//1 134//1
f 144//1 149//1 138//1
f 158//6 155//6 157//6
f 162//4 159//4 161//4
f 167//6 166//6 165//6
f 168//5 163//5 164//5
f 172//4 169//4 171//4
f 173//6 157//6 155//6
f 175//6 167//6 165//6
f 166//6 157//6 165//6
f 162//4 169//4 160//4
f 158//6 161//6 156//6
f 168//6 171//6 166//6
f 172//5 164//5 170//5
f 171//6 158//6 166//6
f 174//6 165//6 157//6
f 8//1 89//1 7//1
f 13//3 92//3 14//3
f 17//1 98//1 97//1
f 89//3 13//3 7//3
f 8//1 97//1 90//1
f 34//3 112//3 35//3
f 118//4 37//4 117//4
f 126//4 43//4 125//4
f 112//3 37//3 35//3
f 118//4 43//4 38//4
f 52//1 133//1 51//1
f 59//1 140//1 139//1
f 143//5 65//5 66//5
f 65//5 140//5 60//5
f 59//1 134//1 52//1
f 159//4 80//4 79//4
f 164//5 85//5 86//5
f 169//4 88//4 87//4
f 88//5 164//5 86//5
f 160//4 87//4 80//4
f 49//1 18//1 16//1
f 22//2 53//2 21//2
f 21//2 49//2 16//2
f 45//2 22//2 4//2
f 135//1 102//1 100//1
f 147//6 110//6 109//6
f 135//1 98//1 133//1
f 137//1 109//1 102//1
f 30//2 67//2 29//2
f 77//4 40//4 42//4
f 42//4 79//4 77//4
f 75//4 30//4 40//4
f 155//6 124//6 123//6
f 161//4 126//4 128//4
f 156//6 128//6 124//6
f 132//6 155//6 123//6
f 1//2 25//2 2//2
f 3//2 29//2 4//2
f 14//3 31//3 10//3
f 2//2 27//2 3//2
f 1//3 31//3 23//3
f 67//2 46//2 45//2
f 71//2 48//2 47//2
f 82//5 66//5 64//5
f 69//2 47//2 46//2
f 82//5 48//5 73//5
f 95//3 111//3 92//3
f 106//6 129//6 104//6
f 110//6 131//6 108//6
f 108//6 130//6 106//6
f 95//3 129//3 113//3
f 163//5 146//5 143//5
f 174//6 148//6 150//6
f 176//6 152//6 154//6
f 175//6 150//6 152//6
f 176//5 146//5 167//5
f 4//2 67//2 45//2
f 173//6 110//6 148//6
f 92//3 34//3 14//3
f 163//5 66//5 85//5
f 18//1 133//1 98//1
f 159//4 44//4 126//4
f 5//1 6//1 8//1
f 10//2 12//2 11//2
f 9//3 13//3 14//3
f 16//1 18//1 17//1
f 19//2 20//2 22//2
f 2//2 12//2 10//2
f 4//2 22//2 20//2
f 6//1 15//1 17//1
f 11//2 12//2 20//2
f 9//2 11//2 6//2
f 5//3 7//3 13//3
f 15//2 19//2 21//2
f 6//2 11//2 19//2
f 3//2 20//2 12//2
f 24//2 26//2 25//2
f 28//2 30//2 29//2
f 34//3 35//3 32//3
f 35//4 36//4 33//4
f 42//4 40//4 39//4
f 31//3 32//3 24//3
f 32//4 33//4 26//4
f 40//4 30//4 28//4
f 25//2 26//2 28//2
f 36//4 41//4 39//4
f 35//4 37//4 38//4
f 41//4 43//4 44//4
f 38//4 43//4 41//4
f 39//4 28//4 26//4
f 49//1 50//1 52//1
f 54//2 56//2 55//2
f 58//1 60//1 59//1
f 61//2 62//2 64//2
f 66//5 65//5 63//5
f 45//2 46//2 56//2
f 47//2 48//2 64//2
f 50//1 57//1 59//1
f 56//2 62//2 61//2
f 49//2 53//2 55//2
f 57//2 61//2 63//2
f 65//5 60//5 58//5
f 50//2 55//2 61//2
f 46//2 47//2 62//2
f 67//2 68//2 70//2
f 71//2 72//2 74//2
f 77//4 78//4 76//4
f 83//5 86//5 85//5
f 86//4 83//4 81//4
f 75//4 76//4 70//4
f 74//5 83//5 82//5
f 83//4 74//4 72//4
f 70//2 72//2 71//2
f 78//4 84//4 81//4
f 79//4 80//4 78//4
f 87//4 88//4 86//4
f 80//4 87//4 84//4
f 81//4 72//4 70//4
f 94//3 95//3 92//3
f 91//1 93//1 96//1
f 99//1 100//1 102//1
f 106//6 104//6 103//6
f 110//6 108//6 107//6
f 103//3 104//3 95//3
f 94//1 96//1 105//1
f 102//1 109//1 107//1
f 93//1 99//1 101//1
f 107//6 108//6 106//6
f 90//1 93//1 91//1
f 100//1 99//1 97//1
f 99//1 93//1 90//1
f 96//1 101//1 107//1
f 116//6 114//6 113//6
f 111//3 113//3 114//3
f 119//4 120//4 118//4
f 123//6 124//6 122//6
f 127//4 128//4 126//4
f 130//6 115//6 113//6
f 132//6 123//6 121//6
f 121//6 122//6 116//6
f 120//4 127//4 125//4
f 120//6 119//6 114//6
f 112//3 114//3 119//3
f 124//6 128//6 127//6
f 127//6 120//6 116//6
f 131//6 121//6 115//6
f 136//1 138//1 137//1
f 143//5 146//5 145//5
f 142//1 145//1 144//1
f 150//6 148//6 147//6
f 153//6 154//6 152//6
f 138//1 149//1 147//1
f 146//5 154//5 153//5
f 145//1 153//1 151//1
f 141//1 144//1 138//1
f 152//6 150//6 149//6
f 134//1 136//1 135//1
f 142//1 141//1 139//1
f 139//1 141//1 136//1
f 144//1 151//1 149//1
f 158//6 156//6 155//6
f 162//4 160//4 159//4
f 167//6 168//6 166//6
f 168//5 167//5 163//5
f 172//4 170//4 169//4
f 173//6 174//6 157//6
f 175//6 176//6 167//6
f 166//6 158//6 157//6
f 162//4 171//4 169//4
f 158//6 162//6 161//6
f 168//6 172//6 171//6
f 172//5 168//5 164//5
f 171//6 162//6 158//6
f 174//6 175//6 165//6
f 8//1 90//1 89//1
f 13//3 91//3 92//3
f 17//1 18//1 98//1
f 89//3 91//3 13//3
f 8//1 17//1 97//1
f 34//3 111//3 112//3
f 118//4 38//4 37//4
f 126//4 44//4 43//4
f 112//3 117//3 37//3
f 118//4 125//4 43//4
f 52//1 134//1 133//1
f 59//1 60//1 140//1
f 143//5 142//5 65//5
f 65//5 142//5 140//5
f 59//1 139//1 134//1
f 159//4 160//4 80//4
f 164//5 163//5 85//5
f 169//4 170//4 88//4
f 88//5 170//5 164//5
f 160//4 169//4 87//4
f 49//1 51//1 18//1
f 22//2 54//2 53//2
f 21//2 53//2 49//2
f 45//2 54//2 22//2
f 135//1 137//1 102//1
f 147//6 148//6 110//6
f 135//1 100//1 98//1
f 137//1 147//1 109//1
f 30//2 68//2 67//2
f 77//4 75//4 40//4
f 42//4 44//4 79//4
f 75//4 68//4 30//4
f 155//6 156//6 124//6
f 161//4 159//4 126//4
f 156//6 161//6 128//6
f 132//6 173//6 155//6
f 1//2 23//2 25//2
f 3//2 27//2 29//2
f 14//3 34//3 31//3
f 2//2 25//2 27//2
f 1//3 10//3 31//3
f 67//2 69//2 46//2
f 71//2 73//2 48//2
f 82//5 85//5 66//5
f 69//2 71//2 47//2
f 82//5 64//5 48//5
f 95//3 113//3 111//3
f 106//6 130//6 129//6
f 110//6 132//6 131//6
f 108//6 131//6 130//6
f 95//3 104//3 129//3
f 163//5 167//5 146//5
f 174//6 173//6 148//6
f 176//6 175//6 152//6
f 175//6 174//6 150//6
f 176//5 154//5 146//5
f 4//2 29//2 67//2
f 173//6 132//6 110//6
f 92//3 111//3 34//3
f 163//5 143//5 66//5
f 18//1 51//1 133//1
f 159//4 79//4 44//4
