# Blender 4.2.16 LTS
# www.blender.org
mtllib box2.mtl
o box2.001
v 0.116133 1.000000 -0.639298
v 0.111561 0.879655 -0.637933
v 0.111560 0.767385 -0.637934
v -0.006764 1.000000 -0.602625
v 0.038239 1.000000 -0.451819
v -0.006763 0.879655 -0.602624
v -0.006763 0.767385 -0.602624
v 0.034414 0.879655 -0.464635
v 0.034414 0.767385 -0.464635
v 0.180459 1.000000 -0.658493
v 0.288139 1.000000 -0.690625
v 0.184094 0.879655 -0.659579
v 0.184094 0.767385 -0.659579
v 0.296364 0.879655 -0.693082
v 0.296364 0.767385 -0.693082
v 0.184095 1.000000 -0.576905
v 0.184095 1.000000 -0.464635
v 0.296364 1.000000 -0.576905
v 0.296364 1.000000 -0.464635
v 0.111560 0.655115 -0.637934
v 0.111560 0.542846 -0.637934
v 0.116133 0.422500 -0.639297
v -0.006762 0.655115 -0.602623
v -0.006764 0.542846 -0.602624
v 0.034415 0.655115 -0.464635
v 0.034415 0.542846 -0.464635
v -0.006765 0.422500 -0.602624
v 0.038239 0.422500 -0.451818
v 0.184095 0.655115 -0.659579
v 0.184094 0.542846 -0.659579
v 0.296364 0.655115 -0.693083
v 0.296364 0.542846 -0.693083
v 0.180459 0.422500 -0.658493
v 0.288138 0.422500 -0.690628
v 0.184095 0.422500 -0.576905
v 0.184095 0.422500 -0.464635
v 0.296364 0.422500 -0.576905
v 0.296364 0.422500 -0.464635
v 0.070372 1.000000 -0.344139
v 0.102506 1.000000 -0.236460
v 0.067918 0.879655 -0.352365
v 0.067918 0.767385 -0.352365
v 0.101422 0.879655 -0.240096
v 0.101421 0.767385 -0.240096
v 0.121703 1.000000 -0.172136
v 0.123066 0.879655 -0.167563
v 0.123066 0.767385 -0.167563
v 0.184095 1.000000 -0.352365
v 0.184095 1.000000 -0.240096
v 0.296364 1.000000 -0.352365
v 0.296364 1.000000 -0.240096
v 0.158377 1.000000 -0.049238
v 0.309181 1.000000 -0.094241
v 0.158376 0.879655 -0.049237
v 0.158375 0.767385 -0.049238
v 0.296364 0.879655 -0.090417
v 0.296364 0.767385 -0.090417
v 0.067918 0.655115 -0.352365
v 0.067918 0.542846 -0.352365
v 0.101421 0.655115 -0.240096
v 0.101421 0.542846 -0.240095
v 0.070374 0.422500 -0.344139
v 0.102506 0.422500 -0.236460
v 0.123067 0.655115 -0.167563
v 0.123066 0.542846 -0.167563
v 0.121702 0.422500 -0.172135
v 0.184095 0.422500 -0.352365
v 0.184095 0.422500 -0.240096
v 0.296364 0.422500 -0.352365
v 0.296364 0.422500 -0.240096
v 0.158376 0.655116 -0.049238
v 0.158376 0.542846 -0.049237
v 0.296364 0.655115 -0.090416
v 0.296364 0.542846 -0.090416
v 0.158376 0.422500 -0.049237
v 0.309181 0.422500 -0.094241
v 0.395818 1.000000 -0.722760
v 0.546621 1.000000 -0.767763
v 0.408634 0.879655 -0.726586
v 0.408634 0.767385 -0.726585
v 0.546621 0.879655 -0.767763
v 0.546622 0.767385 -0.767763
v 0.408634 1.000000 -0.576905
v 0.408634 1.000000 -0.464635
v 0.520904 1.000000 -0.576905
v 0.520904 1.000000 -0.464635
v 0.583297 1.000000 -0.644866
v 0.581932 0.879655 -0.649438
v 0.581932 0.767385 -0.649438
v 0.602492 1.000000 -0.580541
v 0.634626 1.000000 -0.472862
v 0.603577 0.879655 -0.576905
v 0.603577 0.767385 -0.576905
v 0.637081 0.879655 -0.464635
v 0.637081 0.767385 -0.464635
v 0.408634 0.655115 -0.726586
v 0.408634 0.542846 -0.726585
v 0.546622 0.655115 -0.767764
v 0.546622 0.542845 -0.767764
v 0.395818 0.422500 -0.722760
v 0.546621 0.422500 -0.767763
v 0.408634 0.422500 -0.576905
v 0.408634 0.422500 -0.464635
v 0.520904 0.422500 -0.576905
v 0.520904 0.422500 -0.464635
v 0.581932 0.655115 -0.649438
v 0.581933 0.542846 -0.649439
v 0.583297 0.422500 -0.644867
v 0.603576 0.655115 -0.576905
v 0.603577 0.542846 -0.576905
v 0.637081 0.655115 -0.464635
v 0.637081 0.542846 -0.464635
v 0.602492 0.422500 -0.580541
v 0.634627 0.422500 -0.472862
v 0.408634 1.000000 -0.352365
v 0.408634 1.000000 -0.240096
v 0.520904 1.000000 -0.352365
v 0.520904 1.000000 -0.240096
v 0.416860 1.000000 -0.126374
v 0.524540 1.000000 -0.158508
v 0.408634 0.879655 -0.123920
v 0.408634 0.767385 -0.123919
v 0.520904 0.879655 -0.157423
v 0.520904 0.767385 -0.157423
v 0.666761 1.000000 -0.365182
v 0.711763 1.000000 -0.214378
v 0.670584 0.879655 -0.352365
v 0.670584 0.767385 -0.352365
v 0.711762 0.879655 -0.214378
v 0.711762 0.767385 -0.214379
v 0.588864 1.000000 -0.177703
v 0.593435 0.879655 -0.179068
v 0.593435 0.767385 -0.179068
v 0.408634 0.422500 -0.352365
v 0.408634 0.422500 -0.240096
v 0.520904 0.422500 -0.352365
v 0.520904 0.422500 -0.240096
v 0.408634 0.655115 -0.123920
v 0.408634 0.542846 -0.123920
v 0.520904 0.655115 -0.157423
v 0.520904 0.542846 -0.157423
v 0.416860 0.422500 -0.126374
v 0.524540 0.422500 -0.158508
v 0.670584 0.655115 -0.352365
v 0.670584 0.542846 -0.352365
v 0.711761 0.655116 -0.214378
v 0.711761 0.542846 -0.214377
v 0.666759 0.422500 -0.365182
v 0.711761 0.422500 -0.214377
v 0.593435 0.655115 -0.179067
v 0.593436 0.542846 -0.179068
v 0.588864 0.422500 -0.177703
vn -0.9582 -0.0000 0.2860
vn -0.2860 -0.0000 -0.9582
vn -0.0000 1.0000 -0.0000
vn -0.2859 -0.0000 -0.9582
vn -0.9582 -0.0000 0.2859
vn -0.0000 -1.0000 -0.0000
vn 0.2860 -0.0000 0.9582
vn 0.9582 -0.0000 -0.2860
vn 0.9582 -0.0000 -0.2859
vn 0.2859 -0.0000 0.9582
s 0
usemtl RenderformerMatt.006
f 7//1 8//1 6//1
f 14//2 13//2 12//2
f 17//3 18//3 16//3
f 2//2 13//2 3//2
f 5//3 16//3 4//3
f 10//3 18//3 11//3
f 3//2 6//2 2//2
f 4//1 8//1 5//1
f 11//4 12//4 10//4
f 2//4 4//4 1//4
f 1//2 12//2 2//2
f 1//3 16//3 10//3
f 23//5 26//5 25//5
f 29//2 32//2 30//2
f 38//6 35//6 37//6
f 29//2 21//2 20//2
f 35//6 28//6 27//6
f 21//2 23//2 20//2
f 37//6 33//6 34//6
f 27//1 26//1 24//1
f 30//2 34//2 33//2
f 21//2 27//2 24//2
f 30//2 22//2 21//2
f 35//6 22//6 33//6
f 41//1 44//1 43//1
f 49//3 50//3 48//3
f 57//7 54//7 55//7
f 40//3 48//3 39//3
f 55//1 46//1 47//1
f 49//3 53//3 51//3
f 44//5 46//5 43//5
f 39//1 43//1 40//1
f 56//7 52//7 54//7
f 43//1 45//1 40//1
f 46//1 52//1 45//1
f 45//3 49//3 40//3
f 59//1 60//1 58//1
f 70//6 67//6 69//6
f 74//7 71//7 72//7
f 67//6 63//6 62//6
f 65//1 71//1 64//1
f 61//1 64//1 60//1
f 76//6 68//6 70//6
f 62//1 61//1 59//1
f 75//7 74//7 72//7
f 61//1 66//1 65//1
f 75//5 65//5 66//5
f 68//6 66//6 63//6
f 81//2 80//2 79//2
f 84//3 85//3 83//3
f 95//8 92//8 94//8
f 88//8 82//8 81//8
f 86//3 90//3 85//3
f 77//3 85//3 78//3
f 93//8 88//8 92//8
f 78//2 79//2 77//2
f 91//8 92//8 90//8
f 92//8 87//8 90//8
f 78//8 88//8 81//8
f 85//3 87//3 78//3
f 98//2 97//2 96//2
f 105//6 102//6 104//6
f 111//8 110//8 109//8
f 98//8 107//8 99//8
f 113//6 105//6 104//6
f 110//9 106//9 109//9
f 104//6 100//6 101//6
f 97//2 101//2 100//2
f 114//8 110//8 112//8
f 110//9 108//9 107//9
f 107//8 101//8 99//8
f 108//6 104//6 101//6
f 116//3 117//3 115//3
f 122//7 123//7 121//7
f 130//8 127//8 129//8
f 118//3 125//3 117//3
f 133//7 123//7 124//7
f 116//3 120//3 118//3
f 133//7 129//7 132//7
f 123//7 119//7 121//7
f 126//8 127//8 125//8
f 132//10 126//10 131//10
f 123//7 131//7 120//7
f 118//3 131//3 126//3
f 137//6 134//6 136//6
f 141//7 138//7 139//7
f 146//8 145//8 144//8
f 148//6 137//6 136//6
f 141//10 150//10 140//10
f 151//7 146//7 150//7
f 143//6 135//6 137//6
f 142//7 141//7 139//7
f 149//8 145//8 147//8
f 151//7 149//7 147//7
f 152//7 141//7 143//7
f 152//6 137//6 149//6
f 79//2 15//2 14//2
f 19//3 83//3 18//3
f 77//2 14//2 11//2
f 11//3 83//3 77//3
f 96//2 32//2 31//2
f 103//6 37//6 102//6
f 32//4 100//4 34//4
f 102//6 34//6 100//6
f 51//3 115//3 50//3
f 57//10 121//10 56//10
f 121//10 53//10 56//10
f 51//3 119//3 116//3
f 135//6 69//6 134//6
f 74//7 138//7 73//7
f 76//7 139//7 74//7
f 142//6 70//6 135//6
f 48//3 19//3 17//3
f 9//1 41//1 8//1
f 5//5 41//5 39//5
f 39//3 17//3 5//3
f 115//3 86//3 84//3
f 128//8 94//8 127//8
f 125//8 94//8 91//8
f 117//3 91//3 86//3
f 25//1 59//1 58//1
f 69//6 36//6 38//6
f 28//1 59//1 26//1
f 36//6 62//6 28//6
f 145//9 111//9 144//9
f 136//6 103//6 105//6
f 148//9 112//9 145//9
f 114//6 136//6 105//6
f 23//5 9//5 7//5
f 15//2 29//2 13//2
f 3//2 23//2 7//2
f 3//2 29//2 20//2
f 58//1 44//1 42//1
f 71//7 57//7 55//7
f 44//1 64//1 47//1
f 64//1 55//1 47//1
f 82//2 96//2 80//2
f 111//8 93//8 95//8
f 109//9 89//9 93//9
f 82//8 106//8 98//8
f 140//7 122//7 138//7
f 130//8 144//8 128//8
f 133//7 146//7 130//7
f 140//7 133//7 124//7
f 25//1 42//1 9//1
f 144//9 95//9 128//9
f 80//2 31//2 15//2
f 138//7 57//7 73//7
f 50//3 84//3 19//3
f 134//6 38//6 103//6
f 7//5 9//5 8//5
f 14//2 15//2 13//2
f 17//3 19//3 18//3
f 2//2 12//2 13//2
f 5//3 17//3 16//3
f 10//3 16//3 18//3
f 3//2 7//2 6//2
f 4//5 6//5 8//5
f 11//2 14//2 12//2
f 2//2 6//2 4//2
f 1//2 10//2 12//2
f 1//3 4//3 16//3
f 23//1 24//1 26//1
f 29//2 31//2 32//2
f 38//6 36//6 35//6
f 29//2 30//2 21//2
f 35//6 36//6 28//6
f 21//2 24//2 23//2
f 37//6 35//6 33//6
f 27//1 28//1 26//1
f 30//2 32//2 34//2
f 21//4 22//4 27//4
f 30//2 33//2 22//2
f 35//6 27//6 22//6
f 41//1 42//1 44//1
f 49//3 51//3 50//3
f 57//7 56//7 54//7
f 40//3 49//3 48//3
f 55//5 54//5 46//5
f 49//3 52//3 53//3
f 44//1 47//1 46//1
f 39//1 41//1 43//1
f 56//7 53//7 52//7
f 43//5 46//5 45//5
f 46//1 54//1 52//1
f 45//3 52//3 49//3
f 59//1 61//1 60//1
f 70//6 68//6 67//6
f 74//7 73//7 71//7
f 67//6 68//6 63//6
f 65//1 72//1 71//1
f 61//1 65//1 64//1
f 76//6 75//6 68//6
f 62//5 63//5 61//5
f 75//7 76//7 74//7
f 61//1 63//1 66//1
f 75//1 72//1 65//1
f 68//6 75//6 66//6
f 81//2 82//2 80//2
f 84//3 86//3 85//3
f 95//8 93//8 92//8
f 88//8 89//8 82//8
f 86//3 91//3 90//3
f 77//3 83//3 85//3
f 93//9 89//9 88//9
f 78//2 81//2 79//2
f 91//8 94//8 92//8
f 92//8 88//8 87//8
f 78//8 87//8 88//8
f 85//3 90//3 87//3
f 98//2 99//2 97//2
f 105//6 103//6 102//6
f 111//8 112//8 110//8
f 98//8 106//8 107//8
f 113//6 114//6 105//6
f 110//9 107//9 106//9
f 104//6 102//6 100//6
f 97//2 99//2 101//2
f 114//8 113//8 110//8
f 110//9 113//9 108//9
f 107//8 108//8 101//8
f 108//6 113//6 104//6
f 116//3 118//3 117//3
f 122//7 124//7 123//7
f 130//8 128//8 127//8
f 118//3 126//3 125//3
f 133//7 132//7 123//7
f 116//3 119//3 120//3
f 133//7 130//7 129//7
f 123//7 120//7 119//7
f 126//8 129//8 127//8
f 132//10 129//10 126//10
f 123//7 132//7 131//7
f 118//3 120//3 131//3
f 137//6 135//6 134//6
f 141//7 140//7 138//7
f 146//8 147//8 145//8
f 148//6 149//6 137//6
f 141//7 151//7 150//7
f 151//7 147//7 146//7
f 143//6 142//6 135//6
f 142//7 143//7 141//7
f 149//8 148//8 145//8
f 151//10 152//10 149//10
f 152//7 151//7 141//7
f 152//6 143//6 137//6
f 79//2 80//2 15//2
f 19//3 84//3 83//3
f 77//2 79//2 14//2
f 11//3 18//3 83//3
f 96//4 97//4 32//4
f 103//6 38//6 37//6
f 32//4 97//4 100//4
f 102//6 37//6 34//6
f 51//3 116//3 115//3
f 57//10 122//10 121//10
f 121//7 119//7 53//7
f 51//3 53//3 119//3
f 135//6 70//6 69//6
f 74//7 139//7 138//7
f 76//7 142//7 139//7
f 142//6 76//6 70//6
f 48//3 50//3 19//3
f 9//1 42//1 41//1
f 5//1 8//1 41//1
f 39//3 48//3 17//3
f 115//3 117//3 86//3
f 128//9 95//9 94//9
f 125//9 127//9 94//9
f 117//3 125//3 91//3
f 25//1 26//1 59//1
f 69//6 67//6 36//6
f 28//1 62//1 59//1
f 36//6 67//6 62//6
f 145//9 112//9 111//9
f 136//6 134//6 103//6
f 148//9 114//9 112//9
f 114//6 148//6 136//6
f 23//5 25//5 9//5
f 15//2 31//2 29//2
f 3//2 20//2 23//2
f 3//2 13//2 29//2
f 58//1 60//1 44//1
f 71//7 73//7 57//7
f 44//1 60//1 64//1
f 64//1 71//1 55//1
f 82//2 98//2 96//2
f 111//8 109//8 93//8
f 109//9 106//9 89//9
f 82//8 89//8 106//8
f 140//7 124//7 122//7
f 130//8 146//8 144//8
f 133//7 150//7 146//7
f 140//10 150//10 133//10
f 25//1 58//1 42//1
f 144//9 111//9 95//9
f 80//2 96//2 31//2
f 138//10 122//10 57//10
f 50//3 115//3 84//3
f 134//6 69//6 38//6
