# Blender 4.2.16 LTS
# www.blender.org
mtllib wall2.mtl
o wall2.001
v -1.000000 1.000000 1.000000
v -1.000000 1.000000 -1.000000
v -1.000000 -1.000000 1.000000
v -1.000000 1.000000 -0.062500
v -1.000000 0.062500 -1.000000
v -1.000000 -1.000000 0.062500
v -1.000000 0.125000 1.000000
v -1.000000 0.125000 -0.625000
v -1.000000 -0.625000 0.562500
v -1.000000 0.296875 0.468750
v -1.000000 -0.593750 -0.375000
v -1.000000 -1.000000 -1.000000
v -1.000000 -0.062500 -0.093750
v -1.000000 0.625000 -0.375000
vn 1.0000 -0.0000 -0.0000
s 1
usemtl RenderformerMatt.003
f 8//1 14//1 13//1
f 9//1 13//1 10//1
f 4//1 10//1 14//1
f 14//1 8//1 5//1
f 8//1 11//1 5//1
f 10//1 7//1 9//1
f 11//1 13//1 9//1
f 11//1 9//1 6//1
f 1//1 10//1 4//1
f 10//1 13//1 14//1
f 4//1 14//1 2//1
f 14//1 5//1 2//1
f 13//1 11//1 8//1
f 11//1 12//1 5//1
f 1//1 7//1 10//1
f 11//1 6//1 12//1
f 7//1 3//1 9//1
f 9//1 3//1 6//1
